<svg xmlns="http://www.w3.org/2000/svg" width="16" height="16" viewBox="0 0 16 16" fill="none">
  <path d="M1.61539 16C1.15513 16 0.770835 15.8458 0.462501 15.5375C0.154167 15.2292 0 14.8449 0 14.3846V11H1.00001V14.3846C1.00001 14.5385 1.06411 14.6795 1.19231 14.8077C1.32052 14.9359 1.46154 15 1.61539 15H5.00001V16H1.61539V16M11 16V15H14.3846C14.5385 15 14.6795 14.9359 14.8077 14.8077C14.9359 14.6795 15 14.5385 15 14.3846V11H16V14.3846C16 14.8449 15.8458 15.2292 15.5375 15.5375C15.2292 15.8458 14.8449 16 14.3846 16H11V16M0 5.00001V1.61539C0 1.15513 0.154167 0.770834 0.462501 0.4625C0.770835 0.154167 1.15513 0 1.61539 0H5.00001V1.00001H1.61539C1.46154 1.00001 1.32052 1.06411 1.19231 1.19231C1.06411 1.32052 1.00001 1.46154 1.00001 1.61539V5.00001H0V5.00001M15 5.00001V1.61539C15 1.46154 14.9359 1.32052 14.8077 1.19231C14.6795 1.06411 14.5385 1.00001 14.3846 1.00001H11V0H14.3846C14.8449 0 15.2292 0.154167 15.5375 0.4625C15.8458 0.770834 16 1.15513 16 1.61539V5.00001H15V5.00001M8.00001 12C6.8859 12 5.94071 11.6119 5.16442 10.8356C4.38814 10.0593 4 9.11411 4 8.00001C4 6.8859 4.38814 5.94071 5.16442 5.16443C5.94071 4.38814 6.8859 4 8.00001 4C9.11411 4 10.0593 4.38814 10.8356 5.16443C11.6119 5.94071 12 6.8859 12 8.00001C12 9.11411 11.6119 10.0593 10.8356 10.8356C10.0593 11.6119 9.11411 12 8.00001 12V12M8.00001 11C8.83334 11 9.54167 10.7083 10.125 10.125C10.7083 9.54167 11 8.83334 11 8.00001C11 7.16667 10.7083 6.45834 10.125 5.87501C9.54167 5.29167 8.83334 5.00001 8.00001 5.00001C7.16667 5.00001 6.45834 5.29167 5.87501 5.87501C5.29167 6.45834 5.00001 7.16667 5.00001 8.00001C5.00001 8.83334 5.29167 9.54167 5.87501 10.125C6.45834 10.7083 7.16667 11 8.00001 11V11M8.00001 8.00001V8.00001V8.00001V8.00001V8.00001V8.00001V8.00001V8.00001V8.00001V8.00001" fill="white" fill-opacity="0.4"/>
</svg>
