<svg xmlns="http://www.w3.org/2000/svg" width="17" height="17" viewBox="0 0 17 17" fill="none">
  <path d="M1.80768 16.9999C1.30255 16.9999 0.874992 16.8249 0.524995 16.4749C0.174998 16.1249 0 15.6974 0 15.1922V11.5H1.49996V15.1922C1.49996 15.2692 1.53202 15.3397 1.59612 15.4038C1.66023 15.4679 1.73075 15.5 1.80768 15.5H5.49996V16.9999H1.80768V16.9999M11.5 16.9999V15.5H15.1922C15.2692 15.5 15.3397 15.4679 15.4038 15.4038C15.4679 15.3397 15.5 15.2692 15.5 15.1922V11.5H16.9999V15.1922C16.9999 15.6974 16.8249 16.1249 16.4749 16.4749C16.1249 16.8249 15.6974 16.9999 15.1922 16.9999H11.5V16.9999M0 5.49996V1.80768C0 1.30255 0.174998 0.874992 0.524995 0.524995C0.874992 0.174998 1.30255 0 1.80768 0H5.49996V1.49996H1.80768C1.73075 1.49996 1.66023 1.53202 1.59612 1.59612C1.53202 1.66023 1.49996 1.73075 1.49996 1.80768V5.49996H0V5.49996M15.5 5.49996V1.80768C15.5 1.73075 15.4679 1.66023 15.4038 1.59612C15.3397 1.53202 15.2692 1.49996 15.1922 1.49996H11.5V0H15.1922C15.6974 0 16.1249 0.174998 16.4749 0.524995C16.8249 0.874992 16.9999 1.30255 16.9999 1.80768V5.49996H15.5V5.49996M8.49996 12.9999C7.25126 12.9999 6.18908 12.5621 5.31345 11.6865C4.43782 10.8108 4 9.74867 4 8.49996C4 7.25126 4.43782 6.18908 5.31345 5.31345C6.18908 4.43782 7.25126 4 8.49996 4C9.74867 4 10.8108 4.43782 11.6865 5.31345C12.5621 6.18908 12.9999 7.25126 12.9999 8.49996C12.9999 9.74867 12.5621 10.8108 11.6865 11.6865C10.8108 12.5621 9.74867 12.9999 8.49996 12.9999V12.9999M8.49996 11.5C9.3333 11.5 10.0416 11.2083 10.625 10.625C11.2083 10.0416 11.5 9.3333 11.5 8.49996C11.5 7.66663 11.2083 6.9583 10.625 6.37496C10.0416 5.79163 9.3333 5.49996 8.49996 5.49996C7.66663 5.49996 6.9583 5.79163 6.37496 6.37496C5.79163 6.9583 5.49996 7.66663 5.49996 8.49996C5.49996 9.3333 5.79163 10.0416 6.37496 10.625C6.9583 11.2083 7.66663 11.5 8.49996 11.5V11.5M8.49996 8.49996V8.49996V8.49996V8.49996V8.49996V8.49996V8.49996V8.49996V8.49996V8.49996" fill="#003907"/>
</svg>
